<svg width="191" height="50" viewBox="0 0 191 50" fill="none" xmlns="http://www.w3.org/2000/svg">
<path d="M61.775 34.25C60.425 34.25 59.1167 34.0583 57.85 33.675C56.6 33.2917 55.6083 32.7833 54.875 32.15L56 29.625C56.7167 30.1917 57.5917 30.6583 58.625 31.025C59.675 31.375 60.725 31.55 61.775 31.55C63.075 31.55 64.0417 31.3417 64.675 30.925C65.325 30.5083 65.65 29.9583 65.65 29.275C65.65 28.775 65.4667 28.3667 65.1 28.05C64.75 27.7167 64.3 27.4583 63.75 27.275C63.2 27.0917 62.45 26.8833 61.5 26.65C60.1667 26.3333 59.0833 26.0167 58.25 25.7C57.4333 25.3833 56.725 24.8917 56.125 24.225C55.5417 23.5417 55.25 22.625 55.25 21.475C55.25 20.5083 55.5083 19.6333 56.025 18.85C56.5583 18.05 57.35 17.4167 58.4 16.95C59.4667 16.4833 60.7667 16.25 62.3 16.25C63.3667 16.25 64.4167 16.3833 65.45 16.65C66.4833 16.9167 67.375 17.3 68.125 17.8L67.1 20.325C66.3333 19.875 65.5333 19.5333 64.7 19.3C63.8667 19.0667 63.0583 18.95 62.275 18.95C60.9917 18.95 60.0333 19.1667 59.4 19.6C58.7833 20.0333 58.475 20.6083 58.475 21.325C58.475 21.825 58.65 22.2333 59 22.55C59.3667 22.8667 59.825 23.1167 60.375 23.3C60.925 23.4833 61.675 23.6917 62.625 23.925C63.925 24.225 64.9917 24.5417 65.825 24.875C66.6583 25.1917 67.3667 25.6833 67.95 26.35C68.55 27.0167 68.85 27.9167 68.85 29.05C68.85 30.0167 68.5833 30.8917 68.05 31.675C67.5333 32.4583 66.7417 33.0833 65.675 33.55C64.6083 34.0167 63.3083 34.25 61.775 34.25ZM76.8727 20.5C78.8393 20.5 80.3393 20.975 81.3727 21.925C82.4227 22.8583 82.9477 24.275 82.9477 26.175V34H79.9977V32.375C79.6143 32.9583 79.0643 33.4083 78.3477 33.725C77.6477 34.025 76.7977 34.175 75.7977 34.175C74.7977 34.175 73.9227 34.0083 73.1727 33.675C72.4227 33.325 71.8393 32.85 71.4227 32.25C71.0227 31.6333 70.8227 30.9417 70.8227 30.175C70.8227 28.975 71.2643 28.0167 72.1477 27.3C73.0477 26.5667 74.456 26.2 76.3727 26.2H79.8227V26C79.8227 25.0667 79.5393 24.35 78.9727 23.85C78.4227 23.35 77.5977 23.1 76.4977 23.1C75.7477 23.1 75.006 23.2167 74.2727 23.45C73.556 23.6833 72.9477 24.0083 72.4477 24.425L71.2227 22.15C71.9227 21.6167 72.7643 21.2083 73.7477 20.925C74.731 20.6417 75.7727 20.5 76.8727 20.5ZM76.4477 31.9C77.231 31.9 77.9227 31.725 78.5227 31.375C79.1393 31.0083 79.5727 30.4917 79.8227 29.825V28.275H76.5977C74.7977 28.275 73.8977 28.8667 73.8977 30.05C73.8977 30.6167 74.1227 31.0667 74.5727 31.4C75.0227 31.7333 75.6477 31.9 76.4477 31.9ZM99.2141 20.65L93.4891 34H90.2641L84.5391 20.65H87.7891L91.9391 30.55L96.2141 20.65H99.2141ZM113.351 27.4C113.351 27.6167 113.334 27.925 113.301 28.325H102.826C103.009 29.3083 103.484 30.0917 104.251 30.675C105.034 31.2417 106.001 31.525 107.151 31.525C108.618 31.525 109.826 31.0417 110.776 30.075L112.451 32C111.851 32.7167 111.093 33.2583 110.176 33.625C109.259 33.9917 108.226 34.175 107.076 34.175C105.609 34.175 104.318 33.8833 103.201 33.3C102.084 32.7167 101.218 31.9083 100.601 30.875C100.001 29.825 99.701 28.6417 99.701 27.325C99.701 26.025 99.9926 24.8583 100.576 23.825C101.176 22.775 102.001 21.9583 103.051 21.375C104.101 20.7917 105.284 20.5 106.601 20.5C107.901 20.5 109.059 20.7917 110.076 21.375C111.109 21.9417 111.909 22.75 112.476 23.8C113.059 24.8333 113.351 26.0333 113.351 27.4ZM106.601 23C105.601 23 104.751 23.3 104.051 23.9C103.368 24.4833 102.951 25.2667 102.801 26.25H110.376C110.243 25.2833 109.834 24.5 109.151 23.9C108.468 23.3 107.618 23 106.601 23ZM129.778 31.275V34H116.653V16.5H129.428V19.225H119.903V23.775H128.353V26.45H119.903V31.275H129.778ZM138.079 20.5C140.045 20.5 141.545 20.975 142.579 21.925C143.629 22.8583 144.154 24.275 144.154 26.175V34H141.204V32.375C140.82 32.9583 140.27 33.4083 139.554 33.725C138.854 34.025 138.004 34.175 137.004 34.175C136.004 34.175 135.129 34.0083 134.379 33.675C133.629 33.325 133.045 32.85 132.629 32.25C132.229 31.6333 132.029 30.9417 132.029 30.175C132.029 28.975 132.47 28.0167 133.354 27.3C134.254 26.5667 135.662 26.2 137.579 26.2H141.029V26C141.029 25.0667 140.745 24.35 140.179 23.85C139.629 23.35 138.804 23.1 137.704 23.1C136.954 23.1 136.212 23.2167 135.479 23.45C134.762 23.6833 134.154 24.0083 133.654 24.425L132.429 22.15C133.129 21.6167 133.97 21.2083 134.954 20.925C135.937 20.6417 136.979 20.5 138.079 20.5ZM137.654 31.9C138.437 31.9 139.129 31.725 139.729 31.375C140.345 31.0083 140.779 30.4917 141.029 29.825V28.275H137.804C136.004 28.275 135.104 28.8667 135.104 30.05C135.104 30.6167 135.329 31.0667 135.779 31.4C136.229 31.7333 136.854 31.9 137.654 31.9ZM151.139 22.6C152.039 21.2 153.623 20.5 155.889 20.5V23.475C155.623 23.425 155.381 23.4 155.164 23.4C153.948 23.4 152.998 23.7583 152.314 24.475C151.631 25.175 151.289 26.1917 151.289 27.525V34H148.164V20.65H151.139V22.6ZM167.054 33.275C166.687 33.575 166.237 33.8 165.704 33.95C165.187 34.1 164.637 34.175 164.054 34.175C162.587 34.175 161.454 33.7917 160.654 33.025C159.854 32.2583 159.454 31.1417 159.454 29.675V23.25H157.254V20.75H159.454V17.7H162.579V20.75H166.154V23.25H162.579V29.6C162.579 30.25 162.737 30.75 163.054 31.1C163.37 31.4333 163.829 31.6 164.429 31.6C165.129 31.6 165.712 31.4167 166.179 31.05L167.054 33.275ZM177.199 20.5C178.883 20.5 180.233 20.9917 181.249 21.975C182.266 22.9583 182.774 24.4167 182.774 26.35V34H179.649V26.75C179.649 25.5833 179.374 24.7083 178.824 24.125C178.274 23.525 177.491 23.225 176.474 23.225C175.324 23.225 174.416 23.575 173.749 24.275C173.083 24.9583 172.749 25.95 172.749 27.25V34H169.624V15.45H172.749V22.2C173.266 21.65 173.899 21.2333 174.649 20.95C175.416 20.65 176.266 20.5 177.199 20.5ZM187.738 34.175C187.172 34.175 186.688 33.9833 186.288 33.6C185.888 33.2 185.688 32.7 185.688 32.1C185.688 31.4833 185.88 30.9833 186.263 30.6C186.663 30.2167 187.155 30.025 187.738 30.025C188.322 30.025 188.805 30.2167 189.188 30.6C189.588 30.9833 189.788 31.4833 189.788 32.1C189.788 32.7 189.588 33.2 189.188 33.6C188.788 33.9833 188.305 34.175 187.738 34.175Z" fill="black"/>
<path d="M29.9254 23.2104C28.7971 24.3456 28.2332 25.9246 28.3872 27.5178L28.3607 27.4913C28.519 29.3661 27.8427 31.2154 26.5123 32.5458C25.1818 33.8762 23.3326 34.5525 21.4577 34.3942L21.4842 34.4207C19.2142 34.2094 17.0555 35.4442 16.0867 37.5079C15.118 39.5717 15.5473 42.0213 17.1601 43.6326C18.7729 45.2439 21.2228 45.671 23.2857 44.7004C25.3486 43.7298 26.5814 41.5699 26.368 39.3001L26.396 39.3266C26.2377 37.4518 26.914 35.6025 28.2444 34.2721C29.5748 32.9417 31.4241 32.2654 33.2989 32.4236L33.271 32.3972C35.7658 32.6215 38.0872 31.1004 38.8774 28.7234C39.6676 26.3464 38.719 23.7382 36.5864 22.4242C34.4538 21.1102 31.6976 21.4358 29.9298 23.2104H29.9254Z" fill="#5454D4"/>
<path d="M19.0769 30.953L19.0489 30.9265C20.6431 31.0872 22.2252 30.5234 23.3586 29.3909C24.492 28.2584 25.0569 26.6767 24.8974 25.0824L24.9254 25.1089C24.7671 23.2341 25.4434 21.3848 26.7738 20.0544C28.1042 18.724 29.9535 18.0477 31.8283 18.206L31.8004 18.1795C34.0706 18.3927 36.2306 17.1593 37.2009 15.0958C38.1711 13.0324 37.743 10.5821 36.1307 8.96974C34.5184 7.35741 32.0681 6.92938 30.0046 7.8996C27.9412 8.86982 26.7078 11.0299 26.921 13.3001L26.8945 13.2721C27.0533 15.1471 26.3772 16.9967 25.0466 18.3272C23.7161 19.6578 21.8665 20.3339 19.9916 20.1751L20.018 20.203C18.4238 20.0424 16.8418 20.6061 15.7084 21.7387C14.575 22.8712 14.0101 24.4528 14.1695 26.0471L14.143 26.0207C14.3008 27.8954 13.6243 29.7443 12.294 31.0746C10.9637 32.4049 9.11479 33.0813 7.24009 32.9236L7.26656 32.9501C4.99638 32.7369 2.83631 33.9703 1.86609 36.0337C0.895871 38.0972 1.3239 40.5475 2.93623 42.1598C4.54856 43.7721 6.99885 44.2002 9.06231 43.23C11.1258 42.2597 12.3592 40.0997 12.146 37.8295L12.1739 37.856C12.0157 35.9811 12.6919 34.1319 14.0223 32.8014C15.3528 31.471 17.202 30.7948 19.0769 30.953V30.953Z" fill="#FF7143"/>
<path d="M9.22099 28.0016C10.3495 26.8665 10.9129 25.2873 10.7578 23.6942L10.7857 23.7207C10.6273 21.8453 11.304 19.9955 12.6351 18.665C13.9662 17.3344 15.8163 16.6586 17.6916 16.8178L17.6636 16.7913C19.933 17.0039 22.0921 15.7706 23.0617 13.7078C24.0313 11.645 23.6033 9.19566 21.9916 7.58393C20.3798 5.9722 17.9305 5.5442 15.8677 6.51382C13.8049 7.48345 12.5716 9.64248 12.7842 11.9119L12.7578 11.8854C12.916 13.7602 12.2397 15.6095 10.9093 16.9399C9.5789 18.2703 7.72964 18.9466 5.85481 18.7883L5.88128 18.8148C3.38658 18.5911 1.06564 20.1127 0.275915 22.4896C-0.513813 24.8666 0.435108 27.4746 2.56768 28.7882C4.70026 30.1019 7.45632 29.7762 9.22393 28.0016H9.22099Z" fill="#5454D4"/>
</svg>
